<svg width="210" height="210" viewBox="0 0 210 210" fill="none" xmlns="http://www.w3.org/2000/svg">
<path d="M0 100C0 52.8595 0 29.2893 14.6447 14.6447C29.2893 0 52.8595 0 100 0H110C157.14 0 180.711 0 195.355 14.6447C210 29.2893 210 52.8595 210 100V110C210 157.14 210 180.711 195.355 195.355C180.711 210 157.14 210 110 210H100C52.8595 210 29.2893 210 14.6447 195.355C0 180.711 0 157.14 0 110V100Z" fill="#F97316"/>
<path fill-rule="evenodd" clip-rule="evenodd" d="M127 47V66H145V140C145 146.147 140.733 151.298 135 152.652V155C135 159.418 131.418 163 127 163C122.582 163 119 159.418 119 155V153H89V155C89 159.418 85.4183 163 81 163C76.5817 163 73 159.418 73 155V153H65V66H85V58C85 51.9249 89.9249 47 96 47H127ZM98 66H112V58H98V66Z" fill="white"/>
</svg>
